solid NikonD90AcPlugHoles
facet normal 0.0 0.0 -1.0
  outer loop
    vertex 0.25000000000000006 3.1899999999999995 0.0
    vertex -0.2799999999999998 1.5999999999999999 0.0
    vertex -0.2799999999999998 3.1899999999999995 0.0
  endloop
endfacet
facet normal 0.0 0.0 -1.0
  outer loop
    vertex -0.2799999999999998 1.5999999999999999 0.0
    vertex 0.25000000000000006 3.1899999999999995 0.0
    vertex 0.25000000000000006 1.5999999999999999 0.0
  endloop
endfacet
facet normal 0.0 0.0 -1.0
  outer loop
    vertex 1.7200000000000002 4.029999999999999 0.0
    vertex 0.25000000000000006 3.1899999999999995 0.0
    vertex 0.25000000000000006 4.029999999999999 0.0
  endloop
endfacet
facet normal 0.0 0.0 -1.0
  outer loop
    vertex 0.25000000000000006 3.1899999999999995 0.0
    vertex 1.7200000000000002 4.029999999999999 0.0
    vertex 0.25000000000000006 1.5999999999999999 0.0
  endloop
endfacet
facet normal 0.0 0.0 -1.0
  outer loop
    vertex 0.25000000000000006 1.5999999999999999 0.0
    vertex 1.7200000000000002 4.029999999999999 0.0
    vertex 1.2200000000000004 2.809999999999999 0.0
  endloop
endfacet
facet normal 0.0 0.0 -1.0
  outer loop
    vertex 0.25000000000000006 1.5999999999999999 0.0
    vertex 1.2200000000000004 2.809999999999999 0.0
    vertex 0.25000000000000006 0.25000000000000006 0.0
  endloop
endfacet
facet normal 0.0 0.0 -1.0
  outer loop
    vertex 1.2200000000000004 2.809999999999999 0.0
    vertex 1.7200000000000002 4.029999999999999 0.0
    vertex 1.7200000000000002 2.9199999999999995 0.0
  endloop
endfacet
facet normal 0.0 0.0 -1.0
  outer loop
    vertex 1.2200000000000004 2.809999999999999 0.0
    vertex 1.7200000000000002 2.9199999999999995 0.0
    vertex 2.22 2.809999999999999 0.0
  endloop
endfacet
facet normal 0.0 0.0 -1.0
  outer loop
    vertex 5.87 4.029999999999999 0.0
    vertex 4.4 2.9199999999999995 0.0
    vertex 4.4 4.029999999999999 0.0
  endloop
endfacet
facet normal 0.0 0.0 -1.0
  outer loop
    vertex 4.4 2.9199999999999995 0.0
    vertex 5.87 4.029999999999999 0.0
    vertex 4.9 2.8099999999999996 0.0
  endloop
endfacet
facet normal 0.0 0.0 -1.0
  outer loop
    vertex 4.9 2.8099999999999996 0.0
    vertex 5.87 4.029999999999999 0.0
    vertex 4.9 1.4099999999999995 0.0
  endloop
endfacet
facet normal 0.0 0.0 -1.0
  outer loop
    vertex 6.3999999999999995 3.1899999999999995 0.0
    vertex 5.87 1.5999999999999999 0.0
    vertex 5.87 3.1899999999999995 0.0
  endloop
endfacet
facet normal 0.0 0.0 -1.0
  outer loop
    vertex 5.87 1.5999999999999999 0.0
    vertex 6.3999999999999995 3.1899999999999995 0.0
    vertex 6.3999999999999995 1.5999999999999999 0.0
  endloop
endfacet
facet normal 0.0 0.0 -1.0
  outer loop
    vertex 0.25000000000000006 0.25000000000000006 0.0
    vertex 1.2200000000000004 1.4099999999999995 0.0
    vertex 5.87 0.25000000000000006 0.0
  endloop
endfacet
facet normal 0.0 0.0 -1.0
  outer loop
    vertex 1.2200000000000004 1.4099999999999995 0.0
    vertex 0.25000000000000006 0.25000000000000006 0.0
    vertex 1.2200000000000004 2.809999999999999 0.0
  endloop
endfacet
facet normal 0.0 0.0 -1.0
  outer loop
    vertex 5.87 0.25000000000000006 0.0
    vertex 1.2200000000000004 1.4099999999999995 0.0
    vertex 2.22 1.4099999999999995 0.0
  endloop
endfacet
facet normal 0.0 0.0 -1.0
  outer loop
    vertex 5.87 0.25000000000000006 0.0
    vertex 2.22 1.4099999999999995 0.0
    vertex 3.900000000000001 1.4099999999999995 0.0
  endloop
endfacet
facet normal 0.0 0.0 -1.0
  outer loop
    vertex 3.900000000000001 1.4099999999999995 0.0
    vertex 2.22 1.4099999999999995 0.0
    vertex 3.900000000000001 2.8099999999999996 0.0
  endloop
endfacet
facet normal 0.0 0.0 -1.0
  outer loop
    vertex 5.87 0.25000000000000006 0.0
    vertex 3.900000000000001 1.4099999999999995 0.0
    vertex 4.9 1.4099999999999995 0.0
  endloop
endfacet
facet normal 0.0 0.0 -1.0
  outer loop
    vertex 5.87 0.25000000000000006 0.0
    vertex 4.9 1.4099999999999995 0.0
    vertex 5.87 4.029999999999999 0.0
  endloop
endfacet
facet normal 0.0 0.0 -1.0
  outer loop
    vertex 5.87 0.25000000000000006 0.0
    vertex 5.87 4.029999999999999 0.0
    vertex 5.87 3.1899999999999995 0.0
  endloop
endfacet
facet normal 0.0 0.0 -1.0
  outer loop
    vertex 5.87 0.25000000000000006 0.0
    vertex 5.87 3.1899999999999995 0.0
    vertex 5.87 1.5999999999999999 0.0
  endloop
endfacet
facet normal 0.0 0.0 -1.0
  outer loop
    vertex 4.9 2.8099999999999996 0.0
    vertex 3.900000000000001 2.8099999999999996 0.0
    vertex 4.4 2.9199999999999995 0.0
  endloop
endfacet
facet normal 0.0 0.0 -1.0
  outer loop
    vertex 4.4 2.9199999999999995 0.0
    vertex 2.22 2.809999999999999 0.0
    vertex 1.7200000000000002 2.9199999999999995 0.0
  endloop
endfacet
facet normal 0.0 0.0 -1.0
  outer loop
    vertex 2.22 2.809999999999999 0.0
    vertex 4.4 2.9199999999999995 0.0
    vertex 3.900000000000001 2.8099999999999996 0.0
  endloop
endfacet
facet normal 0.0 0.0 -1.0
  outer loop
    vertex 2.22 2.809999999999999 0.0
    vertex 3.900000000000001 2.8099999999999996 0.0
    vertex 2.22 1.4099999999999995 0.0
  endloop
endfacet
facet normal 1.0 -2.0067499055225788e-16 -2.6832119819405753e-18
  outer loop
    vertex 5.87 5.589999999999999 3.9999999999999996
    vertex 5.870000000000001 5.06 7.11
    vertex 5.87 4.029999999999999 3.9999999999999996
  endloop
endfacet
facet normal 1.0 -2.0067499055225788e-16 -2.6832119819405753e-18
  outer loop
    vertex 5.870000000000001 5.06 7.11
    vertex 5.87 5.589999999999999 3.9999999999999996
    vertex 5.87 5.589999999999999 7.11
  endloop
endfacet
facet normal 1.0 -2.0067499055225788e-16 -2.6832119819405753e-18
  outer loop
    vertex 5.87 4.029999999999999 0.0
    vertex 5.87 3.1899999999999995 7.11
    vertex 5.87 3.1899999999999995 0.0
  endloop
endfacet
facet normal 1.0 -2.0067499055225788e-16 -2.6832119819405753e-18
  outer loop
    vertex 5.87 3.1899999999999995 7.11
    vertex 5.87 4.029999999999999 0.0
    vertex 5.87 3.1899999999999995 8.0
  endloop
endfacet
facet normal 1.0 -2.0067499055225788e-16 -2.6832119819405753e-18
  outer loop
    vertex 5.87 3.1899999999999995 8.0
    vertex 5.87 4.029999999999999 0.0
    vertex 5.87 3.1899999999999995 9.0
  endloop
endfacet
facet normal 1.0 -2.0067499055225788e-16 -2.6832119819405753e-18
  outer loop
    vertex 5.87 3.1899999999999995 9.0
    vertex 5.87 4.029999999999999 0.0
    vertex 5.87 4.029999999999999 3.9999999999999996
  endloop
endfacet
facet normal 1.0 -2.0067499055225788e-16 -2.6832119819405753e-18
  outer loop
    vertex 5.87 3.1899999999999995 9.0
    vertex 5.87 4.029999999999999 3.9999999999999996
    vertex 5.870000000000001 5.06 8.0
  endloop
endfacet
facet normal 1.0 -2.0067499055225788e-16 -2.6832119819405753e-18
  outer loop
    vertex 5.87 3.1899999999999995 9.0
    vertex 5.870000000000001 5.06 8.0
    vertex 5.87 5.589999999999999 9.0
  endloop
endfacet
facet normal 1.0 -2.0067499055225788e-16 -2.6832119819405753e-18
  outer loop
    vertex 5.870000000000001 5.06 8.0
    vertex 5.87 4.029999999999999 3.9999999999999996
    vertex 5.870000000000001 5.06 7.11
  endloop
endfacet
facet normal 1.0 -2.0067499055225788e-16 -2.6832119819405753e-18
  outer loop
    vertex 5.87 5.589999999999999 9.0
    vertex 5.870000000000001 5.06 8.0
    vertex 5.870000000000001 5.589999999999999 8.0
  endloop
endfacet
facet normal -0.0 1.0 -0.0
  outer loop
    vertex 5.87 3.1899999999999995 9.0
    vertex 6.3999999999999995 3.1899999999999995 8.0
    vertex 5.87 3.1899999999999995 8.0
  endloop
endfacet
facet normal -0.0 1.0 -0.0
  outer loop
    vertex 6.3999999999999995 3.1899999999999995 8.0
    vertex 5.87 3.1899999999999995 9.0
    vertex 6.3999999999999995 3.1899999999999995 9.0
  endloop
endfacet
facet normal 0.0 -1.0 0.0
  outer loop
    vertex 6.3999999999999995 1.5999999999999999 7.11
    vertex 5.87 1.5999999999999999 0.0
    vertex 6.3999999999999995 1.5999999999999999 0.0
  endloop
endfacet
facet normal 0.0 -1.0 0.0
  outer loop
    vertex 5.87 1.5999999999999999 0.0
    vertex 6.3999999999999995 1.5999999999999999 7.11
    vertex 5.87 1.5999999999999999 7.11
  endloop
endfacet
facet normal 1.0 -0.0 -0.0
  outer loop
    vertex 5.87 1.5999999999999999 0.0
    vertex 5.87 0.25000000000000006 9.0
    vertex 5.87 0.25000000000000006 0.0
  endloop
endfacet
facet normal 1.0 -0.0 -0.0
  outer loop
    vertex 5.87 0.25000000000000006 9.0
    vertex 5.87 1.5999999999999999 0.0
    vertex 5.87 1.5999999999999999 9.0
  endloop
endfacet
facet normal 1.0 -0.0 -0.0
  outer loop
    vertex 5.87 1.5999999999999999 9.0
    vertex 5.87 1.5999999999999999 0.0
    vertex 5.87 1.5999999999999999 7.11
  endloop
endfacet
facet normal 1.0 -0.0 -0.0
  outer loop
    vertex 5.87 1.5999999999999999 9.0
    vertex 5.87 1.5999999999999999 7.11
    vertex 5.87 1.5999999999999999 8.0
  endloop
endfacet
facet normal 0.0 -1.0 0.0
  outer loop
    vertex 5.87 0.25000000000000006 9.0
    vertex 0.25000000000000006 0.25000000000000006 0.0
    vertex 5.87 0.25000000000000006 0.0
  endloop
endfacet
facet normal 0.0 -1.0 0.0
  outer loop
    vertex 0.25000000000000006 0.25000000000000006 0.0
    vertex 5.87 0.25000000000000006 9.0
    vertex 0.25000000000000006 0.25000000000000006 9.0
  endloop
endfacet
facet normal -1.0 0.0 0.0
  outer loop
    vertex 0.25000000000000006 1.5999999999999999 9.0
    vertex 0.25000000000000006 0.25000000000000006 0.0
    vertex 0.25000000000000006 0.25000000000000006 9.0
  endloop
endfacet
facet normal -1.0 0.0 0.0
  outer loop
    vertex 0.25000000000000006 0.25000000000000006 0.0
    vertex 0.25000000000000006 1.5999999999999999 9.0
    vertex 0.25000000000000006 1.5999999999999999 0.0
  endloop
endfacet
facet normal -1.0 0.0 0.0
  outer loop
    vertex 0.25000000000000006 1.5999999999999999 0.0
    vertex 0.25000000000000006 1.5999999999999999 9.0
    vertex 0.25000000000000006 1.5999999999999999 8.0
  endloop
endfacet
facet normal -1.0 0.0 0.0
  outer loop
    vertex 0.25000000000000006 1.5999999999999999 0.0
    vertex 0.25000000000000006 1.5999999999999999 8.0
    vertex 0.25000000000000006 1.5999999999999999 7.11
  endloop
endfacet
facet normal 0.0 -1.0 0.0
  outer loop
    vertex 0.25000000000000006 1.5999999999999999 9.0
    vertex -0.2799999999999998 1.5999999999999999 8.0
    vertex 0.25000000000000006 1.5999999999999999 8.0
  endloop
endfacet
facet normal 0.0 -1.0 0.0
  outer loop
    vertex -0.2799999999999998 1.5999999999999999 8.0
    vertex 0.25000000000000006 1.5999999999999999 9.0
    vertex -0.2799999999999998 1.5999999999999999 9.0
  endloop
endfacet
facet normal -1.0 0.0 0.0
  outer loop
    vertex -0.2799999999999998 3.1899999999999995 7.11
    vertex -0.2799999999999998 1.5999999999999999 0.0
    vertex -0.2799999999999998 1.5999999999999999 7.11
  endloop
endfacet
facet normal -1.0 0.0 0.0
  outer loop
    vertex -0.2799999999999998 1.5999999999999999 0.0
    vertex -0.2799999999999998 3.1899999999999995 7.11
    vertex -0.2799999999999998 3.1899999999999995 0.0
  endloop
endfacet
facet normal -0.0 1.0 -0.0
  outer loop
    vertex -0.2799999999999998 3.1899999999999995 7.11
    vertex 0.25000000000000006 3.1899999999999995 0.0
    vertex -0.2799999999999998 3.1899999999999995 0.0
  endloop
endfacet
facet normal -0.0 1.0 -0.0
  outer loop
    vertex 0.25000000000000006 3.1899999999999995 0.0
    vertex -0.2799999999999998 3.1899999999999995 7.11
    vertex 0.25000000000000006 3.1899999999999995 7.11
  endloop
endfacet
facet normal -0.0 1.0 -0.0
  outer loop
    vertex 2.57 5.589999999999999 7.11
    vertex 3.5500000000000007 5.589999999999999 0.0
    vertex 2.57 5.589999999999999 0.0
  endloop
endfacet
facet normal -0.0 1.0 -0.0
  outer loop
    vertex 3.5500000000000007 5.589999999999999 0.0
    vertex 2.57 5.589999999999999 7.11
    vertex 3.5500000000000007 5.589999999999999 7.11
  endloop
endfacet
facet normal -0.0 1.0 -0.0
  outer loop
    vertex 3.5500000000000007 5.589999999999999 7.11
    vertex 2.57 5.589999999999999 7.11
    vertex 2.57 5.589999999999999 8.0
  endloop
endfacet
facet normal -0.0 1.0 -0.0
  outer loop
    vertex 3.5500000000000007 5.589999999999999 7.11
    vertex 2.57 5.589999999999999 8.0
    vertex 3.5500000000000007 5.589999999999999 8.0
  endloop
endfacet
facet normal -0.0 1.0 -0.0
  outer loop
    vertex 3.5500000000000007 5.589999999999999 8.0
    vertex 2.57 5.589999999999999 8.0
    vertex 2.57 5.589999999999999 9.0
  endloop
endfacet
facet normal -0.0 1.0 -0.0
  outer loop
    vertex 3.5500000000000007 5.589999999999999 8.0
    vertex 2.57 5.589999999999999 9.0
    vertex 3.5500000000000007 5.589999999999999 9.0
  endloop
endfacet
facet normal -1.0 0.0 0.0
  outer loop
    vertex 3.5500000000000007 6.079999999999999 9.0
    vertex 3.5500000000000007 5.589999999999999 8.0
    vertex 3.5500000000000007 5.589999999999999 9.0
  endloop
endfacet
facet normal -1.0 0.0 0.0
  outer loop
    vertex 3.5500000000000007 5.589999999999999 8.0
    vertex 3.5500000000000007 6.079999999999999 9.0
    vertex 3.5500000000000007 6.079999999999999 8.0
  endloop
endfacet
facet normal -1.0 0.0 0.0
  outer loop
    vertex 2.22 2.809999999999999 3.9999999999999996
    vertex 2.22 1.4099999999999995 0.0
    vertex 2.22 1.4099999999999995 3.9999999999999996
  endloop
endfacet
facet normal -1.0 0.0 0.0
  outer loop
    vertex 2.22 1.4099999999999995 0.0
    vertex 2.22 2.809999999999999 3.9999999999999996
    vertex 2.22 2.809999999999999 0.0
  endloop
endfacet
facet normal -0.0 1.0 -0.0
  outer loop
    vertex 3.900000000000001 1.4099999999999995 9.0
    vertex 4.9 1.4099999999999995 0.0
    vertex 3.900000000000001 1.4099999999999995 0.0
  endloop
endfacet
facet normal -0.0 1.0 -0.0
  outer loop
    vertex 4.9 1.4099999999999995 0.0
    vertex 3.900000000000001 1.4099999999999995 9.0
    vertex 4.9 1.4099999999999995 9.0
  endloop
endfacet
facet normal -1.0 0.0 0.0
  outer loop
    vertex 4.9 2.8099999999999996 9.0
    vertex 4.9 1.4099999999999995 0.0
    vertex 4.9 1.4099999999999995 9.0
  endloop
endfacet
facet normal -1.0 0.0 0.0
  outer loop
    vertex 4.9 1.4099999999999995 0.0
    vertex 4.9 2.8099999999999996 9.0
    vertex 4.9 2.8099999999999996 0.0
  endloop
endfacet
facet normal 1.0 -0.0 -0.0
  outer loop
    vertex 3.900000000000001 2.8099999999999996 0.0
    vertex 3.900000000000001 1.4099999999999995 9.0
    vertex 3.900000000000001 1.4099999999999995 0.0
  endloop
endfacet
facet normal 1.0 -0.0 -0.0
  outer loop
    vertex 3.900000000000001 1.4099999999999995 9.0
    vertex 3.900000000000001 2.8099999999999996 0.0
    vertex 3.900000000000001 2.8099999999999996 9.0
  endloop
endfacet
facet normal 0.0 -1.0 0.0
  outer loop
    vertex 4.9 2.8099999999999996 9.0
    vertex 3.900000000000001 2.8099999999999996 0.0
    vertex 4.9 2.8099999999999996 0.0
  endloop
endfacet
facet normal 0.0 -1.0 0.0
  outer loop
    vertex 3.900000000000001 2.8099999999999996 0.0
    vertex 4.9 2.8099999999999996 9.0
    vertex 3.900000000000001 2.8099999999999996 9.0
  endloop
endfacet
facet normal -1.0 0.0 0.0
  outer loop
    vertex 1.7200000000000002 4.029999999999999 9.0
    vertex 1.7200000000000002 5.395818965517241 8.0
    vertex 1.7200000000000002 4.029999999999999 0.0
  endloop
endfacet
facet normal -1.0 0.0 0.0
  outer loop
    vertex 1.7200000000000002 5.395818965517241 8.0
    vertex 1.7200000000000002 4.029999999999999 9.0
    vertex 1.7200000000000002 5.900474137931034 9.0
  endloop
endfacet
facet normal -1.0 0.0 0.0
  outer loop
    vertex 1.7200000000000002 5.395818965517241 8.0
    vertex 1.7200000000000002 5.900474137931034 9.0
    vertex 1.7200000000000002 5.900474137931034 8.0
  endloop
endfacet
facet normal -1.0 0.0 0.0
  outer loop
    vertex 1.7200000000000002 4.029999999999999 0.0
    vertex 1.7200000000000002 5.395818965517241 7.11
    vertex 1.7200000000000002 5.900474137931034 0.0
  endloop
endfacet
facet normal -1.0 0.0 0.0
  outer loop
    vertex 1.7200000000000002 5.395818965517241 7.11
    vertex 1.7200000000000002 4.029999999999999 0.0
    vertex 1.7200000000000002 5.395818965517241 8.0
  endloop
endfacet
facet normal -1.0 0.0 0.0
  outer loop
    vertex 1.7200000000000002 5.900474137931034 0.0
    vertex 1.7200000000000002 5.395818965517241 7.11
    vertex 1.7200000000000002 5.900474137931034 7.11
  endloop
endfacet
facet normal -0.0 1.0 -0.0
  outer loop
    vertex 0.25000000000000006 4.029999999999999 9.0
    vertex 1.7200000000000002 4.029999999999999 0.0
    vertex 0.25000000000000006 4.029999999999999 0.0
  endloop
endfacet
facet normal -0.0 1.0 -0.0
  outer loop
    vertex 1.7200000000000002 4.029999999999999 0.0
    vertex 0.25000000000000006 4.029999999999999 9.0
    vertex 1.7200000000000002 4.029999999999999 9.0
  endloop
endfacet
facet normal -0.0 1.0 -0.0
  outer loop
    vertex 1.2200000000000004 1.4099999999999995 3.9999999999999996
    vertex 2.22 1.4099999999999995 0.0
    vertex 1.2200000000000004 1.4099999999999995 0.0
  endloop
endfacet
facet normal -0.0 1.0 -0.0
  outer loop
    vertex 2.22 1.4099999999999995 0.0
    vertex 1.2200000000000004 1.4099999999999995 3.9999999999999996
    vertex 2.22 1.4099999999999995 3.9999999999999996
  endloop
endfacet
facet normal -0.0 1.0 -0.0
  outer loop
    vertex 4.4 4.029999999999999 3.9999999999999996
    vertex 5.87 4.029999999999999 0.0
    vertex 4.4 4.029999999999999 0.0
  endloop
endfacet
facet normal -0.0 1.0 -0.0
  outer loop
    vertex 5.87 4.029999999999999 0.0
    vertex 4.4 4.029999999999999 3.9999999999999996
    vertex 5.87 4.029999999999999 3.9999999999999996
  endloop
endfacet
facet normal 1.0 -0.0 -0.0
  outer loop
    vertex 4.4 5.900474137931034 0.0
    vertex 4.4 4.029999999999999 3.9999999999999996
    vertex 4.4 4.029999999999999 0.0
  endloop
endfacet
facet normal 1.0 -0.0 -0.0
  outer loop
    vertex 4.4 4.029999999999999 3.9999999999999996
    vertex 4.4 5.900474137931034 0.0
    vertex 4.4 5.900474137931035 3.9999999999999996
  endloop
endfacet
facet normal 1.0 -0.0 -0.0
  outer loop
    vertex 1.2200000000000004 2.809999999999999 0.0
    vertex 1.2200000000000004 1.4099999999999995 3.9999999999999996
    vertex 1.2200000000000004 1.4099999999999995 0.0
  endloop
endfacet
facet normal 1.0 -0.0 -0.0
  outer loop
    vertex 1.2200000000000004 1.4099999999999995 3.9999999999999996
    vertex 1.2200000000000004 2.809999999999999 0.0
    vertex 1.2200000000000004 2.809999999999999 3.9999999999999996
  endloop
endfacet
facet normal 0.0 0.0 -1.0
  outer loop
    vertex 5.87 5.589999999999999 3.9999999999999996
    vertex 4.4 4.029999999999999 3.9999999999999996
    vertex 4.4 5.900474137931035 3.9999999999999996
  endloop
endfacet
facet normal 0.0 0.0 -1.0
  outer loop
    vertex 4.4 4.029999999999999 3.9999999999999996
    vertex 5.87 5.589999999999999 3.9999999999999996
    vertex 5.87 4.029999999999999 3.9999999999999996
  endloop
endfacet
facet normal 0.0 -1.0 0.0
  outer loop
    vertex 2.22 2.809999999999999 3.9999999999999996
    vertex 1.2200000000000004 2.809999999999999 0.0
    vertex 2.22 2.809999999999999 0.0
  endloop
endfacet
facet normal 0.0 -1.0 0.0
  outer loop
    vertex 1.2200000000000004 2.809999999999999 0.0
    vertex 2.22 2.809999999999999 3.9999999999999996
    vertex 1.2200000000000004 2.809999999999999 3.9999999999999996
  endloop
endfacet
facet normal 0.0 0.0 -1.0
  outer loop
    vertex 2.22 2.809999999999999 3.9999999999999996
    vertex 1.2200000000000004 1.4099999999999995 3.9999999999999996
    vertex 1.2200000000000004 2.809999999999999 3.9999999999999996
  endloop
endfacet
facet normal 0.0 0.0 -1.0
  outer loop
    vertex 1.2200000000000004 1.4099999999999995 3.9999999999999996
    vertex 2.22 2.809999999999999 3.9999999999999996
    vertex 2.22 1.4099999999999995 3.9999999999999996
  endloop
endfacet
facet normal -0.2066480673606367 0.9784153393401566 -0.0
  outer loop
    vertex 1.7200000000000002 5.900474137931034 7.11
    vertex 2.57 6.079999999999999 0.0
    vertex 1.7200000000000002 5.900474137931034 0.0
  endloop
endfacet
facet normal -0.2066480673606367 0.9784153393401566 -0.0
  outer loop
    vertex 2.57 6.079999999999999 0.0
    vertex 1.7200000000000002 5.900474137931034 7.11
    vertex 2.57 6.079999999999999 7.11
  endloop
endfacet
facet normal 1.0 -0.0 -0.0
  outer loop
    vertex 2.57 6.079999999999999 0.0
    vertex 2.57 5.589999999999999 7.11
    vertex 2.57 5.589999999999999 0.0
  endloop
endfacet
facet normal 1.0 -0.0 -0.0
  outer loop
    vertex 2.57 5.589999999999999 7.11
    vertex 2.57 6.079999999999999 0.0
    vertex 2.57 6.079999999999999 7.11
  endloop
endfacet
facet normal -1.0 0.0 0.0
  outer loop
    vertex -0.2799999999999998 3.1899999999999995 9.0
    vertex -0.2799999999999998 1.5999999999999999 8.0
    vertex -0.2799999999999998 1.5999999999999999 9.0
  endloop
endfacet
facet normal -1.0 0.0 0.0
  outer loop
    vertex -0.2799999999999998 1.5999999999999999 8.0
    vertex -0.2799999999999998 3.1899999999999995 9.0
    vertex -0.2799999999999998 3.1899999999999995 8.0
  endloop
endfacet
facet normal 0.0 -1.0 0.0
  outer loop
    vertex 0.25000000000000006 1.5999999999999999 7.11
    vertex -0.2799999999999998 1.5999999999999999 0.0
    vertex 0.25000000000000006 1.5999999999999999 0.0
  endloop
endfacet
facet normal 0.0 -1.0 0.0
  outer loop
    vertex -0.2799999999999998 1.5999999999999999 0.0
    vertex 0.25000000000000006 1.5999999999999999 7.11
    vertex -0.2799999999999998 1.5999999999999999 7.11
  endloop
endfacet
facet normal -0.0 1.0 -0.0
  outer loop
    vertex -0.2799999999999998 3.1899999999999995 9.0
    vertex 0.25000000000000006 3.1899999999999995 8.0
    vertex -0.2799999999999998 3.1899999999999995 8.0
  endloop
endfacet
facet normal -0.0 1.0 -0.0
  outer loop
    vertex 0.25000000000000006 3.1899999999999995 8.0
    vertex -0.2799999999999998 3.1899999999999995 9.0
    vertex 0.25000000000000006 3.1899999999999995 9.0
  endloop
endfacet
facet normal -1.0 0.0 0.0
  outer loop
    vertex 0.25000000000000006 3.1899999999999995 8.0
    vertex 0.25000000000000006 1.5999999999999999 7.11
    vertex 0.25000000000000006 1.5999999999999999 8.0
  endloop
endfacet
facet normal -1.0 0.0 0.0
  outer loop
    vertex 0.25000000000000006 1.5999999999999999 7.11
    vertex 0.25000000000000006 3.1899999999999995 8.0
    vertex 0.25000000000000006 3.1899999999999995 7.11
  endloop
endfacet
facet normal 0.0 0.0 -1.0
  outer loop
    vertex 0.25000000000000006 3.1899999999999995 8.0
    vertex -0.2799999999999998 1.5999999999999999 8.0
    vertex -0.2799999999999998 3.1899999999999995 8.0
  endloop
endfacet
facet normal 0.0 0.0 -1.0
  outer loop
    vertex -0.2799999999999998 1.5999999999999999 8.0
    vertex 0.25000000000000006 3.1899999999999995 8.0
    vertex 0.25000000000000006 1.5999999999999999 8.0
  endloop
endfacet
facet normal -0.0 -0.0 1.0
  outer loop
    vertex 0.25000000000000006 1.5999999999999999 7.11
    vertex -0.2799999999999998 3.1899999999999995 7.11
    vertex -0.2799999999999998 1.5999999999999999 7.11
  endloop
endfacet
facet normal -0.0 -0.0 1.0
  outer loop
    vertex -0.2799999999999998 3.1899999999999995 7.11
    vertex 0.25000000000000006 1.5999999999999999 7.11
    vertex 0.25000000000000006 3.1899999999999995 7.11
  endloop
endfacet
facet normal 1.0 -0.0 -0.0
  outer loop
    vertex 6.3999999999999995 3.1899999999999995 0.0
    vertex 6.3999999999999995 1.5999999999999999 7.11
    vertex 6.3999999999999995 1.5999999999999999 0.0
  endloop
endfacet
facet normal 1.0 -0.0 -0.0
  outer loop
    vertex 6.3999999999999995 1.5999999999999999 7.11
    vertex 6.3999999999999995 3.1899999999999995 0.0
    vertex 6.3999999999999995 3.1899999999999995 7.11
  endloop
endfacet
facet normal -0.0 1.0 -0.0
  outer loop
    vertex 5.87 3.1899999999999995 7.11
    vertex 6.3999999999999995 3.1899999999999995 0.0
    vertex 5.87 3.1899999999999995 0.0
  endloop
endfacet
facet normal -0.0 1.0 -0.0
  outer loop
    vertex 6.3999999999999995 3.1899999999999995 0.0
    vertex 5.87 3.1899999999999995 7.11
    vertex 6.3999999999999995 3.1899999999999995 7.11
  endloop
endfacet
facet normal 1.0 -0.0 -0.0
  outer loop
    vertex 6.3999999999999995 3.1899999999999995 8.0
    vertex 6.3999999999999995 1.5999999999999999 9.0
    vertex 6.3999999999999995 1.5999999999999999 8.0
  endloop
endfacet
facet normal 1.0 -0.0 -0.0
  outer loop
    vertex 6.3999999999999995 1.5999999999999999 9.0
    vertex 6.3999999999999995 3.1899999999999995 8.0
    vertex 6.3999999999999995 3.1899999999999995 9.0
  endloop
endfacet
facet normal 0.0 -1.0 0.0
  outer loop
    vertex 6.3999999999999995 1.5999999999999999 9.0
    vertex 5.87 1.5999999999999999 8.0
    vertex 6.3999999999999995 1.5999999999999999 8.0
  endloop
endfacet
facet normal 0.0 -1.0 0.0
  outer loop
    vertex 5.87 1.5999999999999999 8.0
    vertex 6.3999999999999995 1.5999999999999999 9.0
    vertex 5.87 1.5999999999999999 9.0
  endloop
endfacet
facet normal 1.0 2.216954781877278e-16 3.9606270822301895e-16
  outer loop
    vertex 5.87 3.1899999999999995 7.11
    vertex 5.87 1.5999999999999999 8.0
    vertex 5.87 1.5999999999999999 7.11
  endloop
endfacet
facet normal 1.0 2.216954781877278e-16 3.9606270822301895e-16
  outer loop
    vertex 5.87 1.5999999999999999 8.0
    vertex 5.87 3.1899999999999995 7.11
    vertex 5.87 3.1899999999999995 8.0
  endloop
endfacet
facet normal 0.0 0.0 -1.0
  outer loop
    vertex 6.3999999999999995 3.1899999999999995 8.0
    vertex 5.87 1.5999999999999999 8.0
    vertex 5.87 3.1899999999999995 8.0
  endloop
endfacet
facet normal 0.0 0.0 -1.0
  outer loop
    vertex 5.87 1.5999999999999999 8.0
    vertex 6.3999999999999995 3.1899999999999995 8.0
    vertex 6.3999999999999995 1.5999999999999999 8.0
  endloop
endfacet
facet normal -0.0 -0.0 1.0
  outer loop
    vertex 6.3999999999999995 1.5999999999999999 7.11
    vertex 5.87 3.1899999999999995 7.11
    vertex 5.87 1.5999999999999999 7.11
  endloop
endfacet
facet normal -0.0 -0.0 1.0
  outer loop
    vertex 5.87 3.1899999999999995 7.11
    vertex 6.3999999999999995 1.5999999999999999 7.11
    vertex 6.3999999999999995 3.1899999999999995 7.11
  endloop
endfacet
facet normal -0.20664806736063673 0.9784153393401566 -1.027068141677934e-31
  outer loop
    vertex 1.7200000000000002 5.900474137931034 9.0
    vertex 2.57 6.079999999999999 8.0
    vertex 1.7200000000000002 5.900474137931034 8.0
  endloop
endfacet
facet normal -0.20664806736063673 0.9784153393401566 -1.027068141677934e-31
  outer loop
    vertex 2.57 6.079999999999999 8.0
    vertex 1.7200000000000002 5.900474137931034 9.0
    vertex 2.57 6.079999999999999 9.0
  endloop
endfacet
facet normal -1.0 0.0 0.0
  outer loop
    vertex 3.5500000000000007 6.079999999999999 7.11
    vertex 3.5500000000000007 5.589999999999999 0.0
    vertex 3.5500000000000007 5.589999999999999 7.11
  endloop
endfacet
facet normal -1.0 0.0 0.0
  outer loop
    vertex 3.5500000000000007 5.589999999999999 0.0
    vertex 3.5500000000000007 6.079999999999999 7.11
    vertex 3.5500000000000007 6.079999999999999 0.0
  endloop
endfacet
facet normal 0.20664806736063662 0.9784153393401566 7.227349531476295e-17
  outer loop
    vertex 3.5500000000000007 6.079999999999999 9.0
    vertex 5.870000000000001 5.589999999999999 8.0
    vertex 3.5500000000000007 6.079999999999999 8.0
  endloop
endfacet
facet normal 0.20664806736063662 0.9784153393401566 7.227349531476295e-17
  outer loop
    vertex 5.870000000000001 5.589999999999999 8.0
    vertex 3.5500000000000007 6.079999999999999 9.0
    vertex 5.87 5.589999999999999 9.0
  endloop
endfacet
facet normal 1.0 -0.0 -0.0
  outer loop
    vertex 2.57 6.079999999999999 8.0
    vertex 2.57 5.589999999999999 9.0
    vertex 2.57 5.589999999999999 8.0
  endloop
endfacet
facet normal 1.0 -0.0 -0.0
  outer loop
    vertex 2.57 5.589999999999999 9.0
    vertex 2.57 6.079999999999999 8.0
    vertex 2.57 6.079999999999999 9.0
  endloop
endfacet
facet normal -0.22271070136874507 0.9748845795763936 -1.3974265251654643e-31
  outer loop
    vertex 1.7200000000000002 5.395818965517241 8.0
    vertex 2.57 5.589999999999999 7.11
    vertex 1.7200000000000002 5.395818965517241 7.11
  endloop
endfacet
facet normal -0.22271070136874507 0.9748845795763936 -1.3974265251654643e-31
  outer loop
    vertex 2.57 5.589999999999999 7.11
    vertex 1.7200000000000002 5.395818965517241 8.0
    vertex 2.57 5.589999999999999 8.0
  endloop
endfacet
facet normal -0.0 -0.0 1.0
  outer loop
    vertex 5.870000000000001 5.06 7.11
    vertex 3.5500000000000007 6.079999999999999 7.11
    vertex 3.5500000000000007 5.589999999999999 7.11
  endloop
endfacet
facet normal -0.0 -0.0 1.0
  outer loop
    vertex 3.5500000000000007 6.079999999999999 7.11
    vertex 5.870000000000001 5.06 7.11
    vertex 5.87 5.589999999999999 7.11
  endloop
endfacet
facet normal 0.22271070136874496 0.9748845795763936 5.589706100661855e-31
  outer loop
    vertex 3.5500000000000007 5.589999999999999 8.0
    vertex 5.870000000000001 5.06 7.11
    vertex 3.5500000000000007 5.589999999999999 7.11
  endloop
endfacet
facet normal 0.22271070136874496 0.9748845795763936 5.589706100661855e-31
  outer loop
    vertex 5.870000000000001 5.06 7.11
    vertex 3.5500000000000007 5.589999999999999 8.0
    vertex 5.870000000000001 5.06 8.0
  endloop
endfacet
facet normal 0.0 0.0 -1.0
  outer loop
    vertex 5.870000000000001 5.589999999999999 8.0
    vertex 3.5500000000000007 5.589999999999999 8.0
    vertex 3.5500000000000007 6.079999999999999 8.0
  endloop
endfacet
facet normal 0.0 0.0 -1.0
  outer loop
    vertex 3.5500000000000007 5.589999999999999 8.0
    vertex 5.870000000000001 5.589999999999999 8.0
    vertex 5.870000000000001 5.06 8.0
  endloop
endfacet
facet normal 0.20664806736063668 0.9784153393401566 -1.5156611773294822e-17
  outer loop
    vertex 3.5500000000000007 6.079999999999999 7.11
    vertex 4.4 5.900474137931034 0.0
    vertex 3.5500000000000007 6.079999999999999 0.0
  endloop
endfacet
facet normal 0.20664806736063668 0.9784153393401566 -1.5156611773294822e-17
  outer loop
    vertex 4.4 5.900474137931034 0.0
    vertex 3.5500000000000007 6.079999999999999 7.11
    vertex 4.4 5.900474137931035 3.9999999999999996
  endloop
endfacet
facet normal 0.20664806736063668 0.9784153393401566 -1.5156611773294822e-17
  outer loop
    vertex 4.4 5.900474137931035 3.9999999999999996
    vertex 3.5500000000000007 6.079999999999999 7.11
    vertex 5.87 5.589999999999999 3.9999999999999996
  endloop
endfacet
facet normal 0.20664806736063668 0.9784153393401566 -1.5156611773294822e-17
  outer loop
    vertex 5.87 5.589999999999999 3.9999999999999996
    vertex 3.5500000000000007 6.079999999999999 7.11
    vertex 5.87 5.589999999999999 7.11
  endloop
endfacet
facet normal 0.0 0.0 -1.0
  outer loop
    vertex 4.4 5.900474137931034 0.0
    vertex 3.5500000000000007 5.589999999999999 0.0
    vertex 3.5500000000000007 6.079999999999999 0.0
  endloop
endfacet
facet normal 0.0 0.0 -1.0
  outer loop
    vertex 2.57 6.079999999999999 0.0
    vertex 1.7200000000000002 4.029999999999999 0.0
    vertex 1.7200000000000002 5.900474137931034 0.0
  endloop
endfacet
facet normal 0.0 0.0 -1.0
  outer loop
    vertex 1.7200000000000002 4.029999999999999 0.0
    vertex 2.57 6.079999999999999 0.0
    vertex 1.7200000000000002 2.9199999999999995 0.0
  endloop
endfacet
facet normal 0.0 0.0 -1.0
  outer loop
    vertex 1.7200000000000002 2.9199999999999995 0.0
    vertex 2.57 6.079999999999999 0.0
    vertex 2.57 5.589999999999999 0.0
  endloop
endfacet
facet normal 0.0 0.0 -1.0
  outer loop
    vertex 1.7200000000000002 2.9199999999999995 0.0
    vertex 2.57 5.589999999999999 0.0
    vertex 4.4 2.9199999999999995 0.0
  endloop
endfacet
facet normal 0.0 0.0 -1.0
  outer loop
    vertex 4.4 2.9199999999999995 0.0
    vertex 2.57 5.589999999999999 0.0
    vertex 3.5500000000000007 5.589999999999999 0.0
  endloop
endfacet
facet normal 0.0 0.0 -1.0
  outer loop
    vertex 4.4 2.9199999999999995 0.0
    vertex 3.5500000000000007 5.589999999999999 0.0
    vertex 4.4 5.900474137931034 0.0
  endloop
endfacet
facet normal 0.0 0.0 -1.0
  outer loop
    vertex 4.4 2.9199999999999995 0.0
    vertex 4.4 5.900474137931034 0.0
    vertex 4.4 4.029999999999999 0.0
  endloop
endfacet
facet normal -1.0 0.0 0.0
  outer loop
    vertex 0.25000000000000006 4.029999999999999 9.0
    vertex 0.25000000000000006 3.1899999999999995 8.0
    vertex 0.25000000000000006 3.1899999999999995 9.0
  endloop
endfacet
facet normal -1.0 0.0 0.0
  outer loop
    vertex 0.25000000000000006 3.1899999999999995 8.0
    vertex 0.25000000000000006 4.029999999999999 9.0
    vertex 0.25000000000000006 3.1899999999999995 7.11
  endloop
endfacet
facet normal -1.0 0.0 0.0
  outer loop
    vertex 0.25000000000000006 3.1899999999999995 7.11
    vertex 0.25000000000000006 4.029999999999999 9.0
    vertex 0.25000000000000006 3.1899999999999995 0.0
  endloop
endfacet
facet normal -1.0 0.0 0.0
  outer loop
    vertex 0.25000000000000006 3.1899999999999995 0.0
    vertex 0.25000000000000006 4.029999999999999 9.0
    vertex 0.25000000000000006 4.029999999999999 0.0
  endloop
endfacet
facet normal 0.0 0.0 -1.0
  outer loop
    vertex 2.57 6.079999999999999 8.0
    vertex 1.7200000000000002 5.395818965517241 8.0
    vertex 1.7200000000000002 5.900474137931034 8.0
  endloop
endfacet
facet normal 0.0 0.0 -1.0
  outer loop
    vertex 1.7200000000000002 5.395818965517241 8.0
    vertex 2.57 6.079999999999999 8.0
    vertex 2.57 5.589999999999999 8.0
  endloop
endfacet
facet normal -0.0 -0.0 1.0
  outer loop
    vertex 5.87 0.25000000000000006 9.0
    vertex 0.25000000000000006 1.5999999999999999 9.0
    vertex 0.25000000000000006 0.25000000000000006 9.0
  endloop
endfacet
facet normal -0.0 -0.0 1.0
  outer loop
    vertex 0.25000000000000006 1.5999999999999999 9.0
    vertex 5.87 0.25000000000000006 9.0
    vertex 0.25000000000000006 3.1899999999999995 9.0
  endloop
endfacet
facet normal -0.0 -0.0 1.0
  outer loop
    vertex 0.25000000000000006 3.1899999999999995 9.0
    vertex 5.87 0.25000000000000006 9.0
    vertex 3.900000000000001 1.4099999999999995 9.0
  endloop
endfacet
facet normal -0.0 -0.0 1.0
  outer loop
    vertex 0.25000000000000006 3.1899999999999995 9.0
    vertex 3.900000000000001 1.4099999999999995 9.0
    vertex 0.25000000000000006 4.029999999999999 9.0
  endloop
endfacet
facet normal -0.0 -0.0 1.0
  outer loop
    vertex 0.25000000000000006 4.029999999999999 9.0
    vertex 3.900000000000001 1.4099999999999995 9.0
    vertex 1.7200000000000002 4.029999999999999 9.0
  endloop
endfacet
facet normal -0.0 -0.0 1.0
  outer loop
    vertex 1.7200000000000002 4.029999999999999 9.0
    vertex 3.900000000000001 1.4099999999999995 9.0
    vertex 1.7200000000000002 5.900474137931034 9.0
  endloop
endfacet
facet normal -0.0 -0.0 1.0
  outer loop
    vertex 1.7200000000000002 5.900474137931034 9.0
    vertex 3.900000000000001 1.4099999999999995 9.0
    vertex 2.57 5.589999999999999 9.0
  endloop
endfacet
facet normal -0.0 -0.0 1.0
  outer loop
    vertex 2.57 5.589999999999999 9.0
    vertex 3.900000000000001 1.4099999999999995 9.0
    vertex 3.5500000000000007 5.589999999999999 9.0
  endloop
endfacet
facet normal -0.0 -0.0 1.0
  outer loop
    vertex 3.5500000000000007 5.589999999999999 9.0
    vertex 3.900000000000001 1.4099999999999995 9.0
    vertex 3.5500000000000007 6.079999999999999 9.0
  endloop
endfacet
facet normal -0.0 -0.0 1.0
  outer loop
    vertex 3.900000000000001 1.4099999999999995 9.0
    vertex 5.87 0.25000000000000006 9.0
    vertex 4.9 1.4099999999999995 9.0
  endloop
endfacet
facet normal -0.0 -0.0 1.0
  outer loop
    vertex 4.9 1.4099999999999995 9.0
    vertex 5.87 0.25000000000000006 9.0
    vertex 4.9 2.8099999999999996 9.0
  endloop
endfacet
facet normal -0.0 -0.0 1.0
  outer loop
    vertex 6.3999999999999995 1.5999999999999999 9.0
    vertex 5.87 3.1899999999999995 9.0
    vertex 5.87 1.5999999999999999 9.0
  endloop
endfacet
facet normal -0.0 -0.0 1.0
  outer loop
    vertex 5.87 3.1899999999999995 9.0
    vertex 6.3999999999999995 1.5999999999999999 9.0
    vertex 6.3999999999999995 3.1899999999999995 9.0
  endloop
endfacet
facet normal -0.0 -0.0 1.0
  outer loop
    vertex 3.5500000000000007 6.079999999999999 9.0
    vertex 3.900000000000001 2.8099999999999996 9.0
    vertex 5.87 5.589999999999999 9.0
  endloop
endfacet
facet normal -0.0 -0.0 1.0
  outer loop
    vertex 3.900000000000001 2.8099999999999996 9.0
    vertex 3.5500000000000007 6.079999999999999 9.0
    vertex 3.900000000000001 1.4099999999999995 9.0
  endloop
endfacet
facet normal -0.0 -0.0 1.0
  outer loop
    vertex 5.87 5.589999999999999 9.0
    vertex 3.900000000000001 2.8099999999999996 9.0
    vertex 4.9 2.8099999999999996 9.0
  endloop
endfacet
facet normal -0.0 -0.0 1.0
  outer loop
    vertex 5.87 5.589999999999999 9.0
    vertex 4.9 2.8099999999999996 9.0
    vertex 5.87 0.25000000000000006 9.0
  endloop
endfacet
facet normal -0.0 -0.0 1.0
  outer loop
    vertex 5.87 5.589999999999999 9.0
    vertex 5.87 0.25000000000000006 9.0
    vertex 5.87 1.5999999999999999 9.0
  endloop
endfacet
facet normal -0.0 -0.0 1.0
  outer loop
    vertex 5.87 5.589999999999999 9.0
    vertex 5.87 1.5999999999999999 9.0
    vertex 5.87 3.1899999999999995 9.0
  endloop
endfacet
facet normal -0.0 -0.0 1.0
  outer loop
    vertex 0.25000000000000006 1.5999999999999999 9.0
    vertex -0.2799999999999998 3.1899999999999995 9.0
    vertex -0.2799999999999998 1.5999999999999999 9.0
  endloop
endfacet
facet normal -0.0 -0.0 1.0
  outer loop
    vertex -0.2799999999999998 3.1899999999999995 9.0
    vertex 0.25000000000000006 1.5999999999999999 9.0
    vertex 0.25000000000000006 3.1899999999999995 9.0
  endloop
endfacet
facet normal -0.0 -0.0 1.0
  outer loop
    vertex 2.57 6.079999999999999 9.0
    vertex 1.7200000000000002 5.900474137931034 9.0
    vertex 2.57 5.589999999999999 9.0
  endloop
endfacet
facet normal -0.0 -0.0 1.0
  outer loop
    vertex 2.57 5.589999999999999 7.11
    vertex 1.7200000000000002 5.900474137931034 7.11
    vertex 1.7200000000000002 5.395818965517241 7.11
  endloop
endfacet
facet normal -0.0 -0.0 1.0
  outer loop
    vertex 1.7200000000000002 5.900474137931034 7.11
    vertex 2.57 5.589999999999999 7.11
    vertex 2.57 6.079999999999999 7.11
  endloop
endfacet
endsolid NikonD90AcPlugHoles
